<?xml version="1.0" standalone="no"?>
<!DOCTYPE svg PUBLIC "-//W3C//DTD SVG 20010904//EN"
 "http://www.w3.org/TR/2001/REC-SVG-20010904/DTD/svg10.dtd">
<svg version="1.0" xmlns="http://www.w3.org/2000/svg"
 width="256.000000pt" height="256.000000pt" viewBox="0 0 256.000000 256.000000"
 preserveAspectRatio="xMidYMid meet">
<metadata>
Created by potrace 1.16, written by Peter Selinger 2001-2019
</metadata>
<g transform="translate(0.000000,256.000000) scale(0.100000,-0.100000)"
fill="#000000" stroke="none">
<path d="M2550 1285 c0 -1055 4 -992 -63 -1034 l-34 -21 -1161 0 c-747 0
-1170 4 -1187 10 -39 15 -21 -6 25 -30 38 -20 62 -20 1194 -20 l1155 0 41 38
40 39 0 986 c0 543 -2 987 -5 987 -3 0 -5 -430 -5 -955z"/>
<path d="M732 1434 c-14 -10 -22 -25 -22 -45 0 -24 -4 -29 -25 -29 -33 0 -35
-37 -2 -42 19 -3 22 -10 25 -60 3 -56 2 -58 -23 -58 -18 0 -25 -5 -25 -20 0
-19 7 -20 90 -20 83 0 90 1 90 20 0 17 -7 20 -45 20 l-45 0 0 60 0 60 45 0
c38 0 45 3 45 20 0 17 -7 20 -46 20 -41 0 -45 2 -42 23 3 19 9 22 47 22 46 0
67 19 40 36 -22 14 -83 10 -107 -7z"/>
<path d="M1647 1430 c-4 -15 0 -20 14 -20 17 0 19 -8 19 -105 0 -87 -3 -105
-15 -105 -8 0 -15 -9 -15 -20 0 -16 7 -20 35 -20 34 0 35 1 35 39 0 49 15 60
44 32 16 -15 22 -29 18 -46 -4 -24 -2 -25 52 -25 49 0 56 2 56 20 0 14 -7 20
-23 20 -13 0 -39 16 -61 39 l-37 38 27 22 c15 11 37 21 50 21 17 0 24 6 24 20
0 18 -7 20 -61 20 -60 0 -61 0 -56 -25 3 -18 -1 -29 -14 -36 -18 -9 -19 -5
-19 71 l0 80 -34 0 c-25 0 -35 -5 -39 -20z"/>
<path d="M1013 1350 c-30 -18 -37 -18 -34 3 0 4 -21 7 -49 7 -43 0 -50 -3 -50
-20 0 -15 7 -20 25 -20 24 0 25 -3 25 -60 0 -57 -1 -60 -25 -60 -18 0 -25 -5
-25 -20 0 -19 7 -20 90 -20 82 0 90 2 90 19 0 16 -8 20 -42 23 -41 3 -43 4
-44 37 0 36 12 53 55 76 20 10 31 11 39 3 12 -12 42 -4 42 11 0 15 -30 41 -48
41 -9 0 -32 -9 -49 -20z"/>
<path d="M1204 1356 c-43 -19 -64 -53 -64 -102 0 -48 33 -89 81 -99 29 -7 139
19 139 33 -1 26 -17 31 -60 16 -43 -15 -83 -12 -107 8 -27 22 -10 28 72 28
l85 0 0 31 c0 43 -16 69 -55 85 -42 17 -51 17 -91 0z"/>
<path d="M1448 1358 c-35 -9 -49 -30 -30 -42 5 -3 25 -1 45 5 25 7 43 7 57 -1
34 -18 22 -30 -29 -30 -60 0 -101 -28 -101 -69 0 -53 66 -85 120 -58 16 9 30
11 30 6 0 -5 18 -9 40 -9 33 0 40 3 40 20 0 13 -7 20 -20 20 -18 0 -20 7 -20
63 0 35 -6 71 -13 80 -15 22 -71 29 -119 15z"/>
</g>
</svg>
